<?xml version="1.0" encoding="UTF-8"?>
<svg xmlns="http://www.w3.org/2000/svg" xmlns:xlink="http://www.w3.org/1999/xlink" width="32px" height="32px" viewBox="0 0 32 32" version="1.1">
<g id="surface1">
<path style="fill:none;stroke-width:1.8;stroke-linecap:round;stroke-linejoin:round;stroke:rgb(0%,0%,0%);stroke-opacity:1;stroke-miterlimit:4;" d="M 21 12 C 21 7.02832 16.97168 3 12 3 C 7.02832 3 3 7.02832 3 12 C 3 16.97168 7.02832 21 12 21 C 16.97168 21 21 16.97168 21 12 Z M 21 12 " transform="matrix(1.333333,0,0,1.333333,0,0)"/>
<path style="fill:none;stroke-width:1.8;stroke-linecap:round;stroke-linejoin:round;stroke:rgb(0%,0%,0%);stroke-opacity:1;stroke-miterlimit:4;" d="M 9 6.999023 L 9 15 " transform="matrix(1.333333,0,0,1.333333,0,0)"/>
<path style=" stroke:none;fill-rule:nonzero;fill:rgb(0%,0%,0%);fill-opacity:1;" d="M 13.601562 9.332031 C 13.601562 8.449219 12.882812 7.734375 12 7.734375 C 11.117188 7.734375 10.398438 8.449219 10.398438 9.332031 C 10.398438 10.21875 11.117188 10.933594 12 10.933594 C 12.882812 10.933594 13.601562 10.21875 13.601562 9.332031 Z M 13.601562 9.332031 "/>
<path style=" stroke:none;fill-rule:nonzero;fill:rgb(0%,0%,0%);fill-opacity:1;" d="M 13.601562 20 C 13.601562 19.117188 12.882812 18.398438 12 18.398438 C 11.117188 18.398438 10.398438 19.117188 10.398438 20 C 10.398438 20.882812 11.117188 21.601562 12 21.601562 C 12.882812 21.601562 13.601562 20.882812 13.601562 20 Z M 13.601562 20 "/>
<path style="fill:none;stroke-width:1.8;stroke-linecap:round;stroke-linejoin:round;stroke:rgb(0%,0%,0%);stroke-opacity:1;stroke-miterlimit:4;" d="M 9 11.000977 C 12 11.000977 12.999023 9 15 9 " transform="matrix(1.333333,0,0,1.333333,0,0)"/>
<path style=" stroke:none;fill-rule:nonzero;fill:rgb(0%,0%,0%);fill-opacity:1;" d="M 21.601562 12 C 21.601562 11.117188 20.882812 10.398438 20 10.398438 C 19.117188 10.398438 18.398438 11.117188 18.398438 12 C 18.398438 12.882812 19.117188 13.601562 20 13.601562 C 20.882812 13.601562 21.601562 12.882812 21.601562 12 Z M 21.601562 12 "/>
<path style="fill:none;stroke-width:1.8;stroke-linecap:round;stroke-linejoin:round;stroke:rgb(0%,0%,0%);stroke-opacity:1;stroke-miterlimit:4;" d="M 14.499023 13.201172 L 17.701172 13.201172 " transform="matrix(1.333333,0,0,1.333333,0,0)"/>
<path style="fill:none;stroke-width:1.8;stroke-linecap:round;stroke-linejoin:round;stroke:rgb(0%,0%,0%);stroke-opacity:1;stroke-miterlimit:4;" d="M 14.499023 15.799805 L 17.701172 15.799805 " transform="matrix(1.333333,0,0,1.333333,0,0)"/>
</g>
</svg>
